    <svg viewBox="0 0 163 139" fill="none" xmlns="http://www.w3.org/2000/svg"><path d="M40.693 132.184c-26.94-12.33-40.93-39.73-40.69-66a76.43 76.43 0 013.64-22.65c10-31.08 40-48.8 71.35-42.14a60.2 60.2 0 0112.86 4.18c35.9 16.72 36.12 56.84 36.6 59.2l31-7a5.4 5.4 0 015.66 8.29c-10 14.74-27.16 39.55-34.21 46.6-24.77 24.74-56.72 33.02-86.21 19.52z" fill="#000"></path><path d="M68.133 93.174c-16 2.2-29.49 9.71-37.31 19.54a56.243 56.243 0 0014.4 9.5 58.246 58.246 0 0024.42 5.45c16 0 32.23-7 46.21-19.68-9.41-11.3-27.72-17.54-47.72-14.81z" fill="#FF074C"></path><path d="M83.233 15.474a49.785 49.785 0 00-10.52-3.39 52.133 52.133 0 00-10.86-1.15 48.74 48.74 0 00-30 10.13 6.341 6.341 0 005.2 7.7l72 15.3c-4.2-11.25-11.92-22.11-25.82-28.59z" fill="#fff"></path></svg>
                            