<svg viewBox="0 0 119 29" xmlns="http://www.w3.org/2000/svg"><path d="M.52 20.082c-.363-.446-.52-.888-.52-1.306 0-.94.835-1.673 1.744-1.673.52 0 1.043.236 1.484.78.705.889 1.406 1.307 2.579 1.307 1.197 0 2.083-.442 2.083-1.227.004-2.245-7.89-.884-7.89-5.796 0-2.715 2.476-4.281 5.472-4.281 2.06 0 4.09.785 4.977 1.748.417.445.574.915.574 1.333a1.49 1.49 0 01-1.511 1.488c-.496 0-1.044-.21-1.563-.707-.678-.627-1.512-1.069-2.528-1.069-.964 0-1.823.418-1.823 1.176 0 2.245 8.024.73 8.024 5.847 0 2.845-2.5 4.388-5.835 4.388-2.323 0-4.196-.73-5.267-2.008zM20.547 8.175c.755 0 1.433.65 1.433 1.463 0 .81-.678 1.464-1.433 1.464h-1.875v9.06c0 1.226-.937 1.854-1.85 1.854-.886 0-1.85-.628-1.85-1.855v-9.063h-.937c-.784 0-1.46-.65-1.46-1.464 0-.808.676-1.463 1.46-1.463h.937V5.847c0-1.227.937-1.855 1.85-1.855s1.85.628 1.85 1.855V8.17h1.875v.004zM47.294 9.584c.134.825-.429 2.312-2.432 2.127-1.93-.178-2.595.118-2.595 1.712v6.74c0 1.227-.937 1.854-1.85 1.854-.886 0-1.85-.627-1.85-1.855V9.845c0-1.2.936-1.855 1.85-1.855.937 0 1.85.651 1.85 1.855v.027c.547-.915 1.752-1.669 2.555-1.724 1.512-.158 2.323.529 2.472 1.436zM61.449 14.44c0 1.096-.705 1.645-1.823 1.645h-8.468c.157 1.724 1.692 2.95 3.594 2.95 1.276 0 2.216-.52 2.917-1.356.366-.446.784-.6 1.197-.6.835 0 1.59.706 1.59 1.566 0 .34-.13.73-.468 1.097-1.33 1.464-3.075 2.352-5.264 2.352-4.196 0-7.243-2.821-7.243-7.051 0-4.1 2.917-7.153 7.007-7.153 4.067 0 6.488 2.635 6.933 6.163.028.126.028.256.028.386zm-9.93-.81h5.965a.32.32 0 00.311-.39c-.323-1.432-1.622-2.38-3.299-2.38-1.681 0-3.004.952-3.287 2.388a.32.32 0 00.31.383zM36.445 14.44c0 1.096-.705 1.645-1.823 1.645h-8.468c.157 1.724 1.692 2.95 3.594 2.95 1.276 0 2.216-.52 2.917-1.356.366-.446.784-.6 1.197-.6.835 0 1.59.706 1.59 1.566 0 .34-.13.73-.468 1.097-1.33 1.464-3.075 2.352-5.264 2.352-4.196 0-7.243-2.821-7.243-7.051 0-4.1 2.917-7.153 7.007-7.153 4.067 0 6.488 2.635 6.933 6.163.028.126.028.256.028.386zm-9.93-.81h5.961a.32.32 0 00.311-.39c-.322-1.432-1.622-2.38-3.299-2.38-1.68 0-3.004.952-3.287 2.388a.324.324 0 00.315.383zM63.04 14.988c0-4.1 3.074-7.102 7.345-7.102 4.272 0 7.374 3.002 7.374 7.102 0 4.127-3.102 7.102-7.374 7.102-4.271 0-7.346-2.975-7.346-7.102zm11.125 0c0-2.166-1.59-3.76-3.78-3.76-2.161 0-3.752 1.594-3.752 3.76 0 2.166 1.591 3.76 3.752 3.76 2.19 0 3.78-1.594 3.78-3.76zM93.755 27.057c-5.514-2.524-8.378-8.133-8.329-13.51.014-1.574.265-3.137.745-4.636 2.047-6.362 8.188-9.989 14.605-8.626.907.186 1.79.473 2.633.856 7.348 3.422 7.393 11.635 7.491 12.118l6.346-1.433a1.104 1.104 0 011.158 1.697c-2.047 3.017-5.559 8.095-7.002 9.538-5.07 5.064-11.61 6.76-17.647 3.996z"></path><path d="M99.371 19.073c-3.275.45-6.036 1.988-7.637 4a11.51 11.51 0 002.948 1.944c1.566.73 3.271 1.11 4.998 1.116 3.276 0 6.598-1.433 9.459-4.029-1.926-2.313-5.674-3.59-9.768-3.031z" fill="#FF074C"></path><path d="M102.461 3.168c-.69-.31-1.412-.544-2.153-.694a10.678 10.678 0 00-2.223-.236 9.977 9.977 0 00-6.141 2.074 1.295 1.295 0 001.064 1.576l14.738 3.132c-.86-2.303-2.44-4.526-5.285-5.852z" fill="#fff"></path></svg>